<svg id="svg" xmlns="http://www.w3.org/2000/svg" xmlns:xlink="http://www.w3.org/1999/xlink" width="400" height="281.2407680945347" viewBox="0, 0, 400,281.2407680945347"><g id="svgg"><path id="path0" d="M90.399 125.849 L 90.399 249.926 45.790 249.926 L 1.182 249.926 1.182 264.697 L 1.182 279.468 106.942 279.468 C 203.559 279.468,212.703 279.386,212.703 278.522 C 212.703 278.001,209.493 271.354,205.569 263.750 L 198.436 249.926 163.915 249.926 L 129.394 249.926 129.394 144.953 C 129.394 87.218,129.494 40.091,129.615 40.226 C 129.736 40.362,136.943 55.229,145.631 73.264 C 155.466 93.680,178.284 138.669,206.090 192.467 L 250.751 278.877 279.881 278.877 L 309.010 278.877 309.010 155.096 L 309.010 31.315 353.914 31.315 L 398.818 31.315 398.818 16.544 L 398.818 1.773 292.467 1.773 C 200.804 1.773,186.115 1.889,186.115 2.615 C 186.115 3.078,189.346 9.725,193.294 17.386 L 200.474 31.315 235.244 31.315 L 270.015 31.315 270.015 136.288 C 270.015 194.023,269.909 241.150,269.780 241.014 C 269.651 240.879,262.316 226.012,253.479 207.976 C 244.643 189.941,217.327 136.167,192.776 88.479 L 148.139 1.773 119.269 1.773 L 90.399 1.773 90.399 125.849 " stroke="none" fill="#000000" fill-rule="evenodd"></path></g></svg>